<?xml version="1.0" encoding="iso-8859-1"?>
<!-- Generator: Adobe Illustrator 19.0.0, SVG Export Plug-In . SVG Version: 6.00 Build 0)  -->
<svg version="1.1" id="Capa_1" xmlns="http://www.w3.org/2000/svg" xmlns:xlink="http://www.w3.org/1999/xlink" x="0px" y="0px"
	 viewBox="0 0 512 512" style="enable-background:new 0 0 512 512;" xml:space="preserve">
<rect x="297.768" y="327.569" transform="matrix(0.7071 0.7071 -0.7071 0.7071 379.9891 -101.7085)" style="fill:#8ADB53;" width="30" height="160.528"/>
<path style="fill:#C3EA21;" d="M289.04,431.565c0,0,78.359,15.437,128.192-34.396s34.396-128.192,34.396-128.192
	s-78.359-15.437-128.192,34.396S289.04,431.565,289.04,431.565z"/>
<g>
	<path style="fill:#8ADB53;" d="M289.04,431.565c0,0,78.359,15.437,128.192-34.396s34.396-128.192,34.396-128.192L289.04,431.565z"
		/>
	
		<rect x="184.247" y="327.583" transform="matrix(-0.7071 0.7071 -0.7071 -0.7071 628.5274 555.3505)" style="fill:#8ADB53;" width="30" height="160.528"/>
</g>
<path style="fill:#C3EA21;" d="M222.96,431.565c0,0-78.359,15.437-128.192-34.396S60.372,268.977,60.372,268.977
	s78.359-15.437,128.192,34.396S222.96,431.565,222.96,431.565z"/>
<path style="fill:#8ADB53;" d="M222.96,431.565c0,0-78.359,15.437-128.192-34.396S60.372,268.977,60.372,268.977L222.96,431.565z"/>
<rect x="241" y="245.34" style="fill:#C3EA21;" width="30" height="266.66"/>
<rect x="256" y="245.34" style="fill:#8ADB53;" width="15" height="266.66"/>
<circle style="fill:#FBDA35;" cx="256" cy="130.17" r="130.17"/>
<path style="fill:#F7BA35;" d="M386.17,130.17c0,71.891-58.279,130.17-130.17,130.17c0-69.673,0-207.28,0-260.34
	C327.891,0,386.17,58.279,386.17,130.17z"/>
<path style="fill:#FFFFFF;" d="M256,115.17c-7.732,0-14.022-6.29-14.022-14.022c0-7.731,6.29-14.021,14.022-14.021
	c7.732,0,14.022,6.29,14.022,14.021h30c0-19.008-12.111-35.239-29.022-41.387V38.238h-30V59.76
	c-16.911,6.148-29.022,22.378-29.022,41.387c0,24.274,19.748,44.022,44.022,44.022c7.732,0,14.022,6.29,14.022,14.021
	s-6.29,14.021-14.022,14.021s-14.022-6.29-14.022-14.021h-30c0,19.008,12.111,35.239,29.022,41.387v21.522h30v-21.522
	c16.911-6.148,29.022-22.378,29.022-41.387C300.022,134.918,280.274,115.17,256,115.17z"/>
<g>
</g>
<g>
</g>
<g>
</g>
<g>
</g>
<g>
</g>
<g>
</g>
<g>
</g>
<g>
</g>
<g>
</g>
<g>
</g>
<g>
</g>
<g>
</g>
<g>
</g>
<g>
</g>
<g>
</g>
</svg>
